<?xml version="1.0" encoding="UTF-8"?>
<svg xmlns="http://www.w3.org/2000/svg" xmlns:xlink="http://www.w3.org/1999/xlink" width="52.655" height="10.963" viewBox="0 0 52.655 10.963">
<defs>
<g>
<g id="glyph-0-0">
<path d="M 5.109375 -6.75 C 5.109375 -6.765625 5.109375 -6.859375 4.96875 -6.859375 C 4.828125 -6.859375 3.890625 -6.78125 3.71875 -6.75 C 3.640625 -6.75 3.578125 -6.703125 3.578125 -6.5625 C 3.578125 -6.453125 3.671875 -6.453125 3.8125 -6.453125 C 4.296875 -6.453125 4.3125 -6.375 4.3125 -6.28125 L 4.28125 -6.078125 L 3.6875 -3.734375 C 3.515625 -4.109375 3.21875 -4.375 2.78125 -4.375 C 1.625 -4.375 0.390625 -2.921875 0.390625 -1.46875 C 0.390625 -0.546875 0.9375 0.109375 1.71875 0.109375 C 1.90625 0.109375 2.40625 0.0625 3 -0.640625 C 3.078125 -0.21875 3.421875 0.109375 3.890625 0.109375 C 4.25 0.109375 4.46875 -0.125 4.625 -0.4375 C 4.796875 -0.796875 4.921875 -1.390625 4.921875 -1.421875 C 4.921875 -1.515625 4.84375 -1.515625 4.8125 -1.515625 C 4.703125 -1.515625 4.703125 -1.46875 4.671875 -1.328125 C 4.5 -0.6875 4.328125 -0.109375 3.921875 -0.109375 C 3.65625 -0.109375 3.625 -0.359375 3.625 -0.5625 C 3.625 -0.796875 3.640625 -0.875 3.671875 -1.03125 Z M 3.046875 -1.171875 C 3 -1 3 -0.984375 2.84375 -0.8125 C 2.40625 -0.265625 2 -0.109375 1.734375 -0.109375 C 1.234375 -0.109375 1.09375 -0.65625 1.09375 -1.03125 C 1.09375 -1.53125 1.421875 -2.75 1.640625 -3.203125 C 1.953125 -3.78125 2.390625 -4.15625 2.796875 -4.15625 C 3.4375 -4.15625 3.578125 -3.34375 3.578125 -3.28125 C 3.578125 -3.21875 3.546875 -3.171875 3.546875 -3.109375 Z M 3.046875 -1.171875 "/>
</g>
<g id="glyph-0-1">
<path d="M 4.21875 -6 C 4.296875 -6.28125 4.328125 -6.34375 4.453125 -6.375 C 4.546875 -6.390625 4.859375 -6.390625 5.078125 -6.390625 C 6.078125 -6.390625 6.515625 -6.34375 6.515625 -5.578125 C 6.515625 -5.4375 6.484375 -5.046875 6.4375 -4.78125 C 6.421875 -4.75 6.40625 -4.625 6.40625 -4.59375 C 6.40625 -4.546875 6.4375 -4.46875 6.53125 -4.46875 C 6.640625 -4.46875 6.65625 -4.546875 6.671875 -4.703125 L 6.9375 -6.421875 C 6.953125 -6.453125 6.96875 -6.5625 6.96875 -6.59375 C 6.96875 -6.703125 6.859375 -6.703125 6.703125 -6.703125 L 1.203125 -6.703125 C 0.96875 -6.703125 0.953125 -6.6875 0.890625 -6.5 L 0.296875 -4.75 C 0.28125 -4.734375 0.234375 -4.59375 0.234375 -4.578125 C 0.234375 -4.515625 0.28125 -4.46875 0.359375 -4.46875 C 0.453125 -4.46875 0.46875 -4.515625 0.53125 -4.671875 C 1.0625 -6.21875 1.3125 -6.390625 2.78125 -6.390625 L 3.171875 -6.390625 C 3.4375 -6.390625 3.4375 -6.34375 3.4375 -6.265625 C 3.4375 -6.21875 3.40625 -6.09375 3.40625 -6.0625 L 2.078125 -0.78125 C 1.984375 -0.421875 1.953125 -0.3125 0.90625 -0.3125 C 0.546875 -0.3125 0.484375 -0.3125 0.484375 -0.125 C 0.484375 0 0.59375 0 0.65625 0 C 0.921875 0 1.203125 -0.015625 1.46875 -0.015625 C 1.734375 -0.015625 2.03125 -0.03125 2.296875 -0.03125 C 2.578125 -0.03125 2.859375 -0.015625 3.125 -0.015625 C 3.40625 -0.015625 3.703125 0 3.984375 0 C 4.078125 0 4.203125 0 4.203125 -0.203125 C 4.203125 -0.3125 4.125 -0.3125 3.875 -0.3125 C 3.625 -0.3125 3.484375 -0.3125 3.234375 -0.328125 C 2.953125 -0.359375 2.875 -0.390625 2.875 -0.546875 C 2.875 -0.546875 2.875 -0.609375 2.90625 -0.75 Z M 4.21875 -6 "/>
</g>
<g id="glyph-0-2">
<path d="M 4.34375 -7.046875 C 4.390625 -7.171875 4.390625 -7.203125 4.390625 -7.21875 C 4.390625 -7.328125 4.296875 -7.421875 4.1875 -7.421875 C 4.125 -7.421875 4.0625 -7.390625 4.03125 -7.328125 L 0.59375 2.09375 C 0.546875 2.21875 0.546875 2.265625 0.546875 2.28125 C 0.546875 2.390625 0.640625 2.46875 0.734375 2.46875 C 0.875 2.46875 0.90625 2.40625 0.953125 2.234375 Z M 4.34375 -7.046875 "/>
</g>
<g id="glyph-0-3">
<path d="M 0.875 -0.578125 C 0.84375 -0.4375 0.78125 -0.203125 0.78125 -0.15625 C 0.78125 0.015625 0.921875 0.109375 1.0625 0.109375 C 1.1875 0.109375 1.359375 0.03125 1.4375 -0.171875 C 1.453125 -0.203125 1.796875 -1.546875 1.828125 -1.734375 C 1.90625 -2.0625 2.09375 -2.75 2.140625 -3.015625 C 2.1875 -3.140625 2.46875 -3.609375 2.703125 -3.828125 C 2.78125 -3.890625 3.0625 -4.15625 3.484375 -4.15625 C 3.75 -4.15625 3.890625 -4.03125 3.90625 -4.03125 C 3.609375 -3.984375 3.390625 -3.75 3.390625 -3.484375 C 3.390625 -3.328125 3.5 -3.140625 3.765625 -3.140625 C 4.03125 -3.140625 4.3125 -3.375 4.3125 -3.734375 C 4.3125 -4.078125 4 -4.375 3.484375 -4.375 C 2.84375 -4.375 2.40625 -3.890625 2.21875 -3.609375 C 2.140625 -4.0625 1.796875 -4.375 1.328125 -4.375 C 0.875 -4.375 0.6875 -3.984375 0.59375 -3.8125 C 0.421875 -3.46875 0.28125 -2.875 0.28125 -2.84375 C 0.28125 -2.75 0.390625 -2.75 0.40625 -2.75 C 0.5 -2.75 0.515625 -2.765625 0.578125 -2.984375 C 0.734375 -3.671875 0.9375 -4.15625 1.296875 -4.15625 C 1.46875 -4.15625 1.609375 -4.078125 1.609375 -3.703125 C 1.609375 -3.484375 1.578125 -3.375 1.4375 -2.875 Z M 0.875 -0.578125 "/>
</g>
<g id="glyph-1-0">
<path d="M 3.203125 -1.5625 L 5.328125 -1.5625 C 5.40625 -1.5625 5.578125 -1.5625 5.578125 -1.734375 C 5.578125 -1.90625 5.421875 -1.90625 5.328125 -1.90625 L 3.203125 -1.90625 L 3.203125 -4.03125 C 3.203125 -4.125 3.203125 -4.28125 3.03125 -4.28125 C 2.859375 -4.28125 2.859375 -4.125 2.859375 -4.03125 L 2.859375 -1.90625 L 0.734375 -1.90625 C 0.65625 -1.90625 0.484375 -1.90625 0.484375 -1.734375 C 0.484375 -1.5625 0.640625 -1.5625 0.734375 -1.5625 L 2.859375 -1.5625 L 2.859375 0.5625 C 2.859375 0.65625 2.859375 0.8125 3.03125 0.8125 C 3.203125 0.8125 3.203125 0.65625 3.203125 0.5625 Z M 3.203125 -1.5625 "/>
</g>
<g id="glyph-2-0">
<path d="M 6.796875 -3.234375 C 6.9375 -3.234375 7.125 -3.234375 7.125 -3.4375 C 7.125 -3.625 6.9375 -3.625 6.8125 -3.625 L 0.875 -3.625 C 0.734375 -3.625 0.546875 -3.625 0.546875 -3.4375 C 0.546875 -3.234375 0.734375 -3.234375 0.890625 -3.234375 Z M 6.8125 -1.3125 C 6.9375 -1.3125 7.125 -1.3125 7.125 -1.515625 C 7.125 -1.71875 6.9375 -1.71875 6.796875 -1.71875 L 0.890625 -1.71875 C 0.734375 -1.71875 0.546875 -1.71875 0.546875 -1.515625 C 0.546875 -1.3125 0.734375 -1.3125 0.875 -1.3125 Z M 6.8125 -1.3125 "/>
</g>
<g id="glyph-2-1">
<path d="M 4.546875 -3.171875 C 4.546875 -3.953125 4.5 -4.75 4.15625 -5.484375 C 3.703125 -6.421875 2.890625 -6.59375 2.46875 -6.59375 C 1.875 -6.59375 1.15625 -6.328125 0.75 -5.40625 C 0.4375 -4.734375 0.390625 -3.953125 0.390625 -3.171875 C 0.390625 -2.421875 0.421875 -1.53125 0.828125 -0.78125 C 1.25 0.015625 1.984375 0.21875 2.46875 0.21875 C 3 0.21875 3.75 0.015625 4.1875 -0.9375 C 4.5 -1.609375 4.546875 -2.390625 4.546875 -3.171875 Z M 2.46875 0 C 2.078125 0 1.5 -0.25 1.3125 -1.203125 C 1.203125 -1.796875 1.203125 -2.703125 1.203125 -3.28125 C 1.203125 -3.921875 1.203125 -4.5625 1.28125 -5.109375 C 1.46875 -6.28125 2.21875 -6.375 2.46875 -6.375 C 2.796875 -6.375 3.4375 -6.1875 3.625 -5.21875 C 3.734375 -4.65625 3.734375 -3.90625 3.734375 -3.28125 C 3.734375 -2.546875 3.734375 -1.875 3.625 -1.234375 C 3.46875 -0.296875 2.90625 0 2.46875 0 Z M 2.46875 0 "/>
</g>
</g>
<clipPath id="clip-0">
<path clip-rule="nonzero" d="M 13 0.015625 L 27 0.015625 L 27 10.910156 L 13 10.910156 Z M 13 0.015625 "/>
</clipPath>
<clipPath id="clip-1">
<path clip-rule="nonzero" d="M 27 5 L 33 5 L 33 10.910156 L 27 10.910156 Z M 27 5 "/>
</clipPath>
</defs>
<g fill="rgb(0%, 0%, 0%)" fill-opacity="1">
<use xlink:href="#glyph-0-0" x="0.496745" y="7.937409"/>
<use xlink:href="#glyph-0-1" x="5.648524" y="7.937409"/>
</g>
<g clip-path="url(#clip-0)">
<g fill="rgb(0%, 0%, 0%)" fill-opacity="1">
<use xlink:href="#glyph-0-2" x="12.531418" y="7.937409"/>
<use xlink:href="#glyph-0-0" x="17.480293" y="7.937409"/>
<use xlink:href="#glyph-0-3" x="22.632071" y="7.937409"/>
</g>
</g>
<g clip-path="url(#clip-1)">
<g fill="rgb(0%, 0%, 0%)" fill-opacity="1">
<use xlink:href="#glyph-1-0" x="27.098449" y="9.422677"/>
</g>
</g>
<g fill="rgb(0%, 0%, 0%)" fill-opacity="1">
<use xlink:href="#glyph-2-0" x="36.418384" y="7.937409"/>
</g>
<g fill="rgb(0%, 0%, 0%)" fill-opacity="1">
<use xlink:href="#glyph-2-1" x="46.868427" y="7.937409"/>
</g>
</svg>
